# xmcd
# 
# Track frame offsets:
#     150
#     18239
#     37101
#     56057
#     74145
# 
# Disc length: 1240
# 
# Revision: 0
# Processed by: cddbd v1.5.2PL0 Copyright (c) Steve Scherf et al.
# Submitted via: fre:ac v1.0.17
# 
DISCID=4704d605
DTITLE=高坂麗奈 - 「響け！ユーフォニアム」キャラクターソングVol.4
DYEAR=2015
DGENRE=JPop
TTITLE0=心響プロジェクター
TTITLE1=Golden Halo
TTITLE2=北宇治四重奏第4番トランペット
TTITLE3=心響プロジェクター(OFF VOCAL)
TTITLE4=Golden Halo(OFF VOCAL)
EXTD=
EXTT0=
EXTT1=
EXTT2=
EXTT3=
EXTT4=
PLAYORDER=
